PathFileType	4	(X/Y/Z)
DataRate	CameraRate	NumFrames	NumMarkers	Units	OrigDataRate	OrigDataStartFrame	OrigNumFrames																																																																																																			
200	200	4	38	mm	200	126	200																																																																																																			
Frame#	Time	C7			Sternum			r_AMC1			r_AMC2			r_AMC3			l_AMC1			l_AMC2			l_AMC3			PX			T8			r_humerous			r_elbow_medial			r_elbow_lateral			r_forearm			r_wrist_radius			r_wrist_ulna			r_MCP_1			r_MCP_3			l_humerous			l_elbow_medial			l_elbow_lateral			l_forearm			l_wrist_radius			l_wrist_ulna			l_MCP_1			l_MCP_3			r_ASIS			r_PSIS			l_ASIS			l_PSIS			r_IC			l_IC			ts_r			ai_r			aa_r			ts_l			ai_l			aa_l		
		X1	Y1	Z1	X2	Y2	Z2	X3	Y3	Z3	X4	Y4	Z4	X5	Y5	Z5	X6	Y6	Z6	X7	Y7	Z7	X8	Y8	Z8	X9	Y9	Z9	X10	Y10	Z10	X11	Y11	Z11	X12	Y12	Z12	X13	Y13	Z13	X14	Y14	Z14	X15	Y15	Z15	X16	Y16	Z16	X17	Y17	Z17	X18	Y18	Z18	X19	Y19	Z19	X20	Y20	Z20	X21	Y21	Z21	X22	Y22	Z22	X23	Y23	Z23	X24	Y24	Z24	X25	Y25	Z25	X26	Y26	Z26	X27	Y27	Z27	X28	Y28	Z28	X29	Y29	Z29	X30	Y30	Z30	X31	Y31	Z31	X32	Y32	Z32	X33	Y33	Z33	X34	Y34	Z34	X35	Y35	Z35	X36	Y36	Z36	X37	Y37	Z37	X38	Y38	Z38
																																																																																																										
126	0.625	202.9577	1376.8524	-208.4633	329.5295	1301.4912	-197.2761	201.213	1322.045	-41.8271	238.1163	1317.823	-8.5796	261.3465	1350.3109	-29.4246	229.3412	1327.3054	-373.4416	270.4641	1318.1246	-403.5202	294.2017	1351.4237	-370.277	381.4674	1111.6272	-192.1003	149.8006	1193.4974	-220.0924	296.5841	1125.0364	-5.9179	211.4474	991.8589	-24.582	237.6267	998.0542	35.3008	284.6706	839.303	43.1311	328.7949	777.009	19.2618	281.3821	770.1945	38.0421	340.8394	677.1726	32.0967	299.29	690.0524	43.7989	323.1538	1116.2205	-388.2129	223.0065	999.8431	-405.9087	262.0569	993.6945	-445.7885	311.4004	841.4902	-439.865	340.7246	770.4736	-406.7041	304.6107	766.449	-434.2726	355.2925	693.4985	-416.1805	311.9991	691.4742	-440.0131	364.4231	907.2547	-66.1335	176.8191	922.6594	-157.5557	373.9302	895.0682	-328.4764	181.2502	917.0308	-261.29	276.575	966.7684	-40.9519	284.5591	940.8415	-367.3333	161.0327	1298.5552	-124.423	152.1081	1198.025	-116.7754	237.4677	1294.5777	-0.80285	176.7587	1307.1928	-293.2127	160.7146	1207.5747	-285.2808	256.3955	1290.3124	-405.2213
127	0.63	202.9726	1376.8522	-208.4677	329.5558	1301.4915	-197.2551	201.2378	1322.0663	-41.7758	238.1204	1317.8461	-8.5593	261.4098	1350.2018	-29.3923	229.3917	1327.3217	-373.4549	270.5323	1318.1083	-403.5248	294.2421	1351.3932	-370.2636	381.5692	1111.6144	-192.089	149.8197	1193.5111	-220.1018	296.6365	1125.0162	-5.8991	211.4838	991.8569	-24.5724	237.6643	998.0645	35.3174	284.6545	839.2604	43.0735	328.8789	776.9128	19.2594	281.3434	770.2681	38.1362	340.8747	677.1708	32.1156	299.2546	690.1293	43.8303	323.2011	1116.1935	-388.2201	222.9824	999.6484	-405.9019	262.1921	993.8277	-445.7875	311.3853	841.5255	-439.8327	340.7352	770.4493	-406.6637	304.6345	766.4758	-434.2941	355.3594	693.4878	-416.1443	312.0762	691.4918	-440.0413	364.4097	907.2454	-66.0938	176.8491	922.6679	-157.5327	373.979	895.0314	-328.4256	181.2662	917.0408	-261.2881	276.6684	966.7284	-40.914	284.588	940.8016	-367.3252	161.0299	1298.5373	-124.3958	152.1041	1198.0129	-116.7586	237.4829	1294.5755	-0.77944	176.8348	1307.1926	-293.2327	160.7434	1207.562	-285.2761	256.4794	1290.3625	-405.179
128	0.635	202.9949	1376.8638	-208.4343	329.5835	1301.4904	-197.2493	201.263	1322.0604	-41.7705	238.1378	1317.8441	-8.5665	261.4763	1350.1658	-29.4057	229.4188	1327.3292	-373.455	270.5611	1318.0496	-403.4983	294.2885	1351.4064	-370.2747	381.6444	1111.6321	-192.0976	149.8389	1193.4959	-220.0901	296.6479	1124.9797	-5.8733	211.4823	991.8371	-24.5869	237.6686	998.0437	35.3201	284.7514	839.2912	43.1501	328.9002	776.9056	19.2965	281.3964	770.2246	38.1691	340.8925	677.18	32.1255	299.3512	690.0203	43.8349	323.1958	1116.2268	-388.1488	223.0237	999.6813	-405.8961	262.339	993.9645	-445.7795	311.4259	841.5279	-439.8621	340.7826	770.4248	-406.5885	304.6303	766.5024	-434.2631	355.3813	693.4736	-416.1345	312.0971	691.501	-439.9449	364.4878	907.2151	-66.0804	176.8422	922.6719	-157.5043	373.9984	895.0518	-328.4365	181.3078	917.0462	-261.2455	276.7345	966.7058	-40.9575	284.4545	940.8903	-367.2683	161.0335	1298.5164	-124.3892	152.1209	1198	-116.7284	237.5211	1294.5466	-0.80795	176.94	1307.3062	-293.1946	160.8513	1207.6641	-285.2489	256.6227	1290.4752	-405.1441
129	0.64	203.0237	1376.8654	-208.4347	329.6193	1301.5081	-197.2181	201.2765	1322.0486	-41.7622	238.0857	1317.9342	-8.5224	261.4703	1350.2096	-29.3609	229.4749	1327.3459	-373.4536	270.5914	1318.0953	-403.4731	294.3399	1351.3705	-370.2322	381.6529	1111.6267	-192.0624	149.8462	1193.51	-220.0718	296.6687	1124.9733	-5.8894	211.5047	991.8285	-24.5647	237.6894	998.0723	35.3445	284.7638	839.2723	43.1588	328.904	776.9243	19.297	281.4152	770.198	38.1589	340.9204	677.1839	32.1504	299.3962	690.0111	43.852	323.2716	1116.1975	-388.2187	223.1137	999.7974	-405.889	262.1459	993.7028	-445.764	311.4993	841.4605	-439.7774	340.8128	770.4343	-406.5719	304.6409	766.5112	-434.2259	355.4262	693.4926	-416.0949	312.1738	691.515	-439.9923	364.4696	907.2147	-66.0534	176.8765	922.6629	-157.5061	374.0206	895.0273	-328.4278	181.3397	917.0438	-261.2467	276.7491	966.7336	-40.8964	284.5782	940.8686	-367.3162	161.067	1298.5606	-124.3674	152.2048	1198.0317	-116.7565	237.5387	1294.5305	-0.75633	176.8462	1307.2343	-293.2347	160.7873	1207.5857	-285.2678	256.5148	1290.4168	-405.1543
